<svg width="228" height="21" viewBox="0 0 228 21" fill="none" xmlns="http://www.w3.org/2000/svg">
<path d="M2.38784 18.036C1.82784 17.1867 1.40784 16.2767 1.12784 15.306C0.857177 14.3353 0.721844 13.3693 0.721844 12.408C0.721844 11.4467 0.857177 10.4807 1.12784 9.51C1.40784 8.53933 1.82784 7.62933 2.38784 6.78C2.45318 6.68667 2.52784 6.64 2.61184 6.64H3.10184C3.20451 6.64 3.23251 6.68667 3.18584 6.78C2.76584 7.62933 2.43918 8.53933 2.20584 9.51C1.97251 10.4807 1.85584 11.4467 1.85584 12.408C1.85584 13.3693 1.97251 14.34 2.20584 15.32C2.43918 16.3 2.76584 17.2053 3.18584 18.036C3.23251 18.1293 3.20451 18.176 3.10184 18.176H2.61184C2.52784 18.176 2.45318 18.1293 2.38784 18.036ZM4.93803 16.132C4.93803 16.0573 4.96136 15.992 5.00803 15.936L8.43803 11.568C8.6527 11.2973 8.81603 11.0313 8.92803 10.77C9.04936 10.4993 9.11003 10.2147 9.11003 9.916C9.11003 9.48667 8.9747 9.132 8.70403 8.852C8.4427 8.56267 8.0787 8.418 7.61203 8.418C7.1547 8.418 6.80003 8.544 6.54803 8.796C6.29603 9.048 6.1327 9.38867 6.05803 9.818C6.03936 9.91133 5.98803 9.94867 5.90403 9.93L5.05003 9.748C4.96603 9.72 4.9287 9.664 4.93803 9.58C4.96603 9.3 5.04536 9.02467 5.17603 8.754C5.3067 8.48333 5.48403 8.24533 5.70803 8.04C5.93203 7.82533 6.2027 7.65267 6.52003 7.522C6.8467 7.39133 7.22003 7.326 7.64003 7.326C8.06003 7.326 8.43336 7.39133 8.76003 7.522C9.0867 7.65267 9.3667 7.83467 9.60003 8.068C9.83336 8.30133 10.0107 8.57667 10.132 8.894C10.2534 9.21133 10.314 9.552 10.314 9.916C10.314 10.3453 10.23 10.742 10.062 11.106C9.90336 11.47 9.67936 11.834 9.39003 12.198L6.45003 15.894V15.908H10.174C10.2674 15.908 10.314 15.9547 10.314 16.048V16.86C10.314 16.9533 10.2674 17 10.174 17H5.07803C4.9847 17 4.93803 16.9533 4.93803 16.86V16.132ZM14.8359 8.964H14.8079L13.2259 10.07C13.1233 10.1353 13.0719 10.1073 13.0719 9.986V8.95C13.0719 8.87533 13.1046 8.81 13.1699 8.754L14.8079 7.564C14.8733 7.508 14.9479 7.48 15.0319 7.48H15.8719C15.9653 7.48 16.0119 7.52667 16.0119 7.62V16.86C16.0119 16.9533 15.9653 17 15.8719 17H14.9759C14.8826 17 14.8359 16.9533 14.8359 16.86V8.964ZM19.6518 18.036C20.0718 17.2053 20.3985 16.3 20.6318 15.32C20.8651 14.34 20.9818 13.3693 20.9818 12.408C20.9818 11.4467 20.8651 10.4807 20.6318 9.51C20.3985 8.53933 20.0718 7.62933 19.6518 6.78C19.6051 6.68667 19.6331 6.64 19.7358 6.64H20.2258C20.3098 6.64 20.3845 6.68667 20.4498 6.78C21.0098 7.62933 21.4251 8.53933 21.6958 9.51C21.9758 10.4807 22.1158 11.4467 22.1158 12.408C22.1158 13.3693 21.9758 14.3353 21.6958 15.306C21.4251 16.2767 21.0098 17.1867 20.4498 18.036C20.3845 18.1293 20.3098 18.176 20.2258 18.176H19.7358C19.6331 18.176 19.6051 18.1293 19.6518 18.036Z" fill="#666666"/>
<g clip-path="url(#clip0_4872_1062)">
<path d="M47.9813 9.00829C47.9365 8.8704 47.8174 8.7699 47.6739 8.74908L43.6439 8.16345L41.8415 4.51161C41.7774 4.38161 41.645 4.29932 41.5 4.29932C41.355 4.29932 41.2227 4.38161 41.1585 4.51161L39.3561 8.16345L35.3261 8.74908C35.1827 8.7699 35.0634 8.8704 35.0187 9.00827C34.9738 9.14616 35.0112 9.29752 35.115 9.3987L38.0311 12.2413L37.3428 16.2551C37.3183 16.398 37.377 16.5423 37.4943 16.6276C37.5607 16.6758 37.6392 16.7003 37.7182 16.7003C37.7788 16.7003 37.8397 16.6859 37.8954 16.6566L41.5 14.7615L45.1045 16.6565C45.2328 16.724 45.3883 16.7128 45.5056 16.6276C45.6228 16.5423 45.6816 16.3979 45.6571 16.255L44.9686 12.2413L47.885 9.39867C47.9888 9.29752 48.0262 9.14616 47.9813 9.00829Z" fill="#D6D6D6"/>
</g>
<g clip-path="url(#clip1_4872_1062)">
<path d="M62.9813 9.00829C62.9365 8.8704 62.8174 8.7699 62.6739 8.74908L58.6439 8.16345L56.8415 4.51161C56.7774 4.38161 56.645 4.29932 56.5 4.29932C56.355 4.29932 56.2227 4.38161 56.1585 4.51161L54.3561 8.16345L50.3261 8.74908C50.1827 8.7699 50.0634 8.8704 50.0187 9.00827C49.9738 9.14616 50.0112 9.29752 50.115 9.3987L53.0311 12.2413L52.3428 16.2551C52.3183 16.398 52.377 16.5423 52.4943 16.6276C52.5607 16.6758 52.6392 16.7003 52.7182 16.7003C52.7788 16.7003 52.8397 16.6859 52.8954 16.6566L56.5 14.7615L60.1045 16.6565C60.2328 16.724 60.3883 16.7128 60.5056 16.6276C60.6228 16.5423 60.6816 16.3979 60.6571 16.255L59.9686 12.2413L62.885 9.39867C62.9888 9.29752 63.0262 9.14616 62.9813 9.00829Z" fill="#D6D6D6"/>
</g>
<g clip-path="url(#clip2_4872_1062)">
<path d="M77.9813 9.00829C77.9365 8.8704 77.8174 8.7699 77.6739 8.74908L73.6439 8.16345L71.8415 4.51161C71.7774 4.38161 71.645 4.29932 71.5 4.29932C71.355 4.29932 71.2227 4.38161 71.1585 4.51161L69.3561 8.16345L65.3261 8.74908C65.1827 8.7699 65.0634 8.8704 65.0187 9.00827C64.9738 9.14616 65.0112 9.29752 65.115 9.3987L68.0311 12.2413L67.3428 16.2551C67.3183 16.398 67.377 16.5423 67.4943 16.6276C67.5607 16.6758 67.6392 16.7003 67.7182 16.7003C67.7788 16.7003 67.8397 16.6859 67.8954 16.6566L71.5 14.7615L75.1045 16.6565C75.2328 16.724 75.3883 16.7128 75.5056 16.6276C75.6228 16.5423 75.6816 16.3979 75.6571 16.255L74.9686 12.2413L77.885 9.39867C77.9888 9.29752 78.0262 9.14616 77.9813 9.00829Z" fill="#FFC62A"/>
</g>
<g clip-path="url(#clip3_4872_1062)">
<path d="M92.9813 9.00829C92.9365 8.8704 92.8174 8.7699 92.6739 8.74908L88.6439 8.16345L86.8415 4.51161C86.7774 4.38161 86.645 4.29932 86.5 4.29932C86.355 4.29932 86.2227 4.38161 86.1585 4.51161L84.3561 8.16345L80.3261 8.74908C80.1827 8.7699 80.0634 8.8704 80.0187 9.00827C79.9738 9.14616 80.0112 9.29752 80.115 9.3987L83.0311 12.2413L82.3428 16.2551C82.3183 16.398 82.377 16.5423 82.4943 16.6276C82.5607 16.6758 82.6392 16.7003 82.7182 16.7003C82.7788 16.7003 82.8397 16.6859 82.8954 16.6566L86.5 14.7615L90.1045 16.6565C90.2328 16.724 90.3883 16.7128 90.5056 16.6276C90.6228 16.5423 90.6816 16.3979 90.6571 16.255L89.9686 12.2413L92.885 9.39867C92.9888 9.29752 93.0262 9.14616 92.9813 9.00829Z" fill="#FFC62A"/>
</g>
<g clip-path="url(#clip4_4872_1062)">
<path d="M107.981 9.00829C107.937 8.8704 107.817 8.7699 107.674 8.74908L103.644 8.16345L101.842 4.51161C101.777 4.38161 101.645 4.29932 101.5 4.29932C101.355 4.29932 101.223 4.38161 101.158 4.51161L99.3561 8.16345L95.3261 8.74908C95.1827 8.7699 95.0634 8.8704 95.0187 9.00827C94.9738 9.14616 95.0112 9.29752 95.115 9.3987L98.0311 12.2413L97.3428 16.2551C97.3183 16.398 97.377 16.5423 97.4943 16.6276C97.5607 16.6758 97.6392 16.7003 97.7182 16.7003C97.7788 16.7003 97.8397 16.6859 97.8954 16.6566L101.5 14.7615L105.104 16.6565C105.233 16.724 105.388 16.7128 105.506 16.6276C105.623 16.5423 105.682 16.3979 105.657 16.255L104.969 12.2413L107.885 9.39867C107.989 9.29752 108.026 9.14616 107.981 9.00829Z" fill="#FFC62A"/>
</g>
<defs>
<clipPath id="clip0_4872_1062">
<rect width="13" height="13" fill="white" transform="translate(35 4)"/>
</clipPath>
<clipPath id="clip1_4872_1062">
<rect width="13" height="13" fill="white" transform="translate(50 4)"/>
</clipPath>
<clipPath id="clip2_4872_1062">
<rect width="13" height="13" fill="white" transform="translate(65 4)"/>
</clipPath>
<clipPath id="clip3_4872_1062">
<rect width="13" height="13" fill="white" transform="translate(80 4)"/>
</clipPath>
<clipPath id="clip4_4872_1062">
<rect width="13" height="13" fill="white" transform="translate(95 4)"/>
</clipPath>
</defs>
</svg>
