<svg width="187" height="13" viewBox="0 0 187 13" fill="none" xmlns="http://www.w3.org/2000/svg">
<g clip-path="url(#clip0_4872_1541)">
<path d="M126.981 5.00829C126.937 4.8704 126.817 4.7699 126.674 4.74908L122.644 4.16345L120.842 0.511607C120.777 0.381607 120.645 0.299316 120.5 0.299316C120.355 0.299316 120.223 0.381607 120.158 0.511607L118.356 4.16345L114.326 4.74908C114.183 4.7699 114.063 4.8704 114.019 5.00827C113.974 5.14616 114.011 5.29752 114.115 5.3987L117.031 8.24127L116.343 12.2551C116.318 12.398 116.377 12.5423 116.494 12.6276C116.561 12.6758 116.639 12.7003 116.718 12.7003C116.779 12.7003 116.84 12.6859 116.895 12.6566L120.5 10.7615L124.104 12.6565C124.233 12.724 124.388 12.7128 124.506 12.6276C124.623 12.5423 124.682 12.3979 124.657 12.255L123.969 8.24127L126.885 5.39867C126.989 5.29752 127.026 5.14616 126.981 5.00829Z" fill="#FFC62A"/>
</g>
<g clip-path="url(#clip1_4872_1541)">
<path d="M141.981 5.00829C141.937 4.8704 141.817 4.7699 141.674 4.74908L137.644 4.16345L135.842 0.511607C135.777 0.381607 135.645 0.299316 135.5 0.299316C135.355 0.299316 135.223 0.381607 135.158 0.511607L133.356 4.16345L129.326 4.74908C129.183 4.7699 129.063 4.8704 129.019 5.00827C128.974 5.14616 129.011 5.29752 129.115 5.3987L132.031 8.24127L131.343 12.2551C131.318 12.398 131.377 12.5423 131.494 12.6276C131.561 12.6758 131.639 12.7003 131.718 12.7003C131.779 12.7003 131.84 12.6859 131.895 12.6566L135.5 10.7615L139.104 12.6565C139.233 12.724 139.388 12.7128 139.506 12.6276C139.623 12.5423 139.682 12.3979 139.657 12.255L138.969 8.24127L141.885 5.39867C141.989 5.29752 142.026 5.14616 141.981 5.00829Z" fill="#FFC62A"/>
</g>
<g clip-path="url(#clip2_4872_1541)">
<path d="M156.981 5.00829C156.937 4.8704 156.817 4.7699 156.674 4.74908L152.644 4.16345L150.842 0.511607C150.777 0.381607 150.645 0.299316 150.5 0.299316C150.355 0.299316 150.223 0.381607 150.158 0.511607L148.356 4.16345L144.326 4.74908C144.183 4.7699 144.063 4.8704 144.019 5.00827C143.974 5.14616 144.011 5.29752 144.115 5.3987L147.031 8.24127L146.343 12.2551C146.318 12.398 146.377 12.5423 146.494 12.6276C146.561 12.6758 146.639 12.7003 146.718 12.7003C146.779 12.7003 146.84 12.6859 146.895 12.6566L150.5 10.7615L154.104 12.6565C154.233 12.724 154.388 12.7128 154.506 12.6276C154.623 12.5423 154.682 12.3979 154.657 12.255L153.969 8.24127L156.885 5.39867C156.989 5.29752 157.026 5.14616 156.981 5.00829Z" fill="#FFC62A"/>
</g>
<g clip-path="url(#clip3_4872_1541)">
<path d="M171.981 5.00829C171.937 4.8704 171.817 4.7699 171.674 4.74908L167.644 4.16345L165.842 0.511607C165.777 0.381607 165.645 0.299316 165.5 0.299316C165.355 0.299316 165.223 0.381607 165.158 0.511607L163.356 4.16345L159.326 4.74908C159.183 4.7699 159.063 4.8704 159.019 5.00827C158.974 5.14616 159.011 5.29752 159.115 5.3987L162.031 8.24127L161.343 12.2551C161.318 12.398 161.377 12.5423 161.494 12.6276C161.561 12.6758 161.639 12.7003 161.718 12.7003C161.779 12.7003 161.84 12.6859 161.895 12.6566L165.5 10.7615L169.104 12.6565C169.233 12.724 169.388 12.7128 169.506 12.6276C169.623 12.5423 169.682 12.3979 169.657 12.255L168.969 8.24127L171.885 5.39867C171.989 5.29752 172.026 5.14616 171.981 5.00829Z" fill="#FFC62A"/>
</g>
<g clip-path="url(#clip4_4872_1541)">
<path d="M186.981 5.00829C186.937 4.8704 186.817 4.7699 186.674 4.74908L182.644 4.16345L180.842 0.511607C180.777 0.381607 180.645 0.299316 180.5 0.299316C180.355 0.299316 180.223 0.381607 180.158 0.511607L178.356 4.16345L174.326 4.74908C174.183 4.7699 174.063 4.8704 174.019 5.00827C173.974 5.14616 174.011 5.29752 174.115 5.3987L177.031 8.24127L176.343 12.2551C176.318 12.398 176.377 12.5423 176.494 12.6276C176.561 12.6758 176.639 12.7003 176.718 12.7003C176.779 12.7003 176.84 12.6859 176.895 12.6566L180.5 10.7615L184.104 12.6565C184.233 12.724 184.388 12.7128 184.506 12.6276C184.623 12.5423 184.682 12.3979 184.657 12.255L183.969 8.24127L186.885 5.39867C186.989 5.29752 187.026 5.14616 186.981 5.00829Z" fill="#FFC62A"/>
</g>
<defs>
<clipPath id="clip0_4872_1541">
<rect width="13" height="13" fill="white" transform="translate(114)"/>
</clipPath>
<clipPath id="clip1_4872_1541">
<rect width="13" height="13" fill="white" transform="translate(129)"/>
</clipPath>
<clipPath id="clip2_4872_1541">
<rect width="13" height="13" fill="white" transform="translate(144)"/>
</clipPath>
<clipPath id="clip3_4872_1541">
<rect width="13" height="13" fill="white" transform="translate(159)"/>
</clipPath>
<clipPath id="clip4_4872_1541">
<rect width="13" height="13" fill="white" transform="translate(174)"/>
</clipPath>
</defs>
</svg>
