<svg width="21" height="21" viewBox="0 0 21 21" fill="none" xmlns="http://www.w3.org/2000/svg">
<path fill-rule="evenodd" clip-rule="evenodd" d="M3.80367 5.84579C3.78876 5.68077 3.80838 5.51445 3.8613 5.35742C3.91422 5.2004 3.99926 5.05613 4.11102 4.93379C4.22277 4.81145 4.35879 4.71374 4.51039 4.64687C4.662 4.58 4.82587 4.54545 4.99157 4.54541H19.4543C19.6329 4.54549 19.8092 4.58567 19.9703 4.66301C20.1313 4.74034 20.2729 4.85285 20.3846 4.99222C20.4963 5.13159 20.5753 5.29428 20.6158 5.46827C20.6562 5.64226 20.6571 5.82311 20.6183 5.99747L19.3963 11.5058C19.1861 12.4524 18.6593 13.299 17.9029 13.9057C17.1465 14.5124 16.2058 14.843 15.2361 14.8428H8.50925C7.44557 14.8429 6.42033 14.4451 5.63505 13.7276C4.84978 13.0101 4.36127 12.0249 4.26554 10.9655L3.80367 5.84579ZM5.55058 6.24971L5.96302 10.8121C6.02048 11.448 6.31384 12.0394 6.78536 12.4699C7.25689 12.9005 7.87245 13.139 8.51095 13.1385H15.2378C15.8195 13.1384 16.3837 12.9399 16.8374 12.5758C17.291 12.2117 17.6069 11.7038 17.7329 11.1359L18.8186 6.24971H5.55058Z" fill="#666666"/>
<path fill-rule="evenodd" clip-rule="evenodd" d="M0.279297 1.68516C0.279297 1.45915 0.369077 1.24241 0.528886 1.0826C0.688695 0.922788 0.905443 0.833008 1.13145 0.833008H4.12079C4.32924 0.833219 4.53037 0.909822 4.68615 1.04832C4.84192 1.18683 4.94153 1.37762 4.96613 1.5846L5.65126 7.38093C5.6777 7.60558 5.61382 7.83153 5.47366 8.00908C5.33351 8.18663 5.12857 8.30123 4.90392 8.32767C4.67927 8.35412 4.45332 8.29023 4.27577 8.15008C4.09822 8.00993 3.98362 7.80499 3.95718 7.58034L3.36238 2.53561H1.13145C0.905443 2.53561 0.688695 2.44582 0.528886 2.28602C0.369077 2.12621 0.279297 1.91116 0.279297 1.68516ZM7.94865 19.2957C8.17466 19.2957 8.39141 19.2059 8.55122 19.0461C8.71103 18.8863 8.80081 18.6696 8.80081 18.4436C8.80081 18.2176 8.71103 18.0008 8.55122 17.841C8.39141 17.6812 8.17466 17.5914 7.94865 17.5914C7.72265 17.5914 7.5059 17.6812 7.34609 17.841C7.18628 18.0008 7.0965 18.2176 7.0965 18.4436C7.0965 18.6696 7.18628 18.8863 7.34609 19.0461C7.5059 19.2059 7.72265 19.2957 7.94865 19.2957ZM7.94865 21C8.28437 21 8.6168 20.9339 8.92697 20.8054C9.23713 20.6769 9.51895 20.4886 9.75634 20.2512C9.99373 20.0138 10.182 19.732 10.3105 19.4219C10.439 19.1117 10.5051 18.7793 10.5051 18.4436C10.5051 18.1078 10.439 17.7754 10.3105 17.4652C10.182 17.1551 9.99373 16.8733 9.75634 16.6359C9.51895 16.3985 9.23713 16.2102 8.92697 16.0817C8.6168 15.9532 8.28437 15.8871 7.94865 15.8871C7.27064 15.8871 6.6204 16.1564 6.14097 16.6359C5.66154 17.1153 5.3922 17.7655 5.3922 18.4436C5.3922 19.1216 5.66154 19.7718 6.14097 20.2512C6.6204 20.7307 7.27064 21 7.94865 21ZM15.7237 19.2957C15.9497 19.2957 16.1664 19.2059 16.3262 19.0461C16.486 18.8863 16.5758 18.6696 16.5758 18.4436C16.5758 18.2176 16.486 18.0008 16.3262 17.841C16.1664 17.6812 15.9497 17.5914 15.7237 17.5914C15.4977 17.5914 15.2809 17.6812 15.1211 17.841C14.9613 18.0008 14.8715 18.2176 14.8715 18.4436C14.8715 18.6696 14.9613 18.8863 15.1211 19.0461C15.2809 19.2059 15.4977 19.2957 15.7237 19.2957ZM15.7237 21C16.0594 21 16.3918 20.9339 16.702 20.8054C17.0122 20.6769 17.294 20.4886 17.5314 20.2512C17.7688 20.0138 17.9571 19.732 18.0855 19.4219C18.214 19.1117 18.2801 18.7793 18.2801 18.4436C18.2801 18.1078 18.214 17.7754 18.0855 17.4652C17.9571 17.1551 17.7688 16.8733 17.5314 16.6359C17.294 16.3985 17.0122 16.2102 16.702 16.0817C16.3918 15.9532 16.0594 15.8871 15.7237 15.8871C15.0457 15.8871 14.3954 16.1564 13.916 16.6359C13.4366 17.1153 13.1672 17.7655 13.1672 18.4436C13.1672 19.1216 13.4366 19.7718 13.916 20.2512C14.3954 20.7307 15.0457 21 15.7237 21Z" fill="#666666"/>
</svg>
